#!OML:ASF H:\Terrain\Patient Classification 1\Walking\liu\liu.ASF
:FULLY-SPECIFIED
:DEGREES
275
root 9.964440 16.879700 1.717000 5.905770 -4.005520 1.827630
lowerback -2.388175 -0.763590 -1.426165
upperback -0.302435 -0.968800 1.080900
thorax 1.112430 -0.500700 1.850985
lowerneck -11.003400 -1.850205 -5.658300
upperneck 10.796000 -2.177755 5.734250
head 5.576300 -0.757530 2.718810
rclavicle -0.000000 -0.000000
rhumerus -22.937250 4.334875 -41.614349
rradius 21.371849
rwrist -11.974900
rhand -15.070750 -10.909750
rfingers 3.562510
rthumb -1.727045 -25.885651
lclavicle -0.000000 -0.000000
lhumerus -10.775950 -6.772700 43.552700
lradius 11.877900
lwrist -0.036612
lhand -6.359100 -12.327150
lfingers 3.562510
lthumb 6.682450 2.448525
rfemur -12.985450 -0.845680 9.000200
rtibia 32.091801
rfoot -9.203500 -5.895300
rtoes -9.674850
lfemur -8.819900 3.266850 -14.187050
ltibia 14.840200
lfoot -8.612200 3.421160
ltoes -2.335880
276
root 9.978130 16.869900 1.850370 5.758230 -3.682150 2.013130
lowerback -2.418605 -0.847870 -1.525075
upperback -0.272662 -1.075585 1.087390
thorax 1.173345 -0.556565 1.904650
lowerneck -10.979950 -1.844080 -5.632100
upperneck 10.916750 -2.164325 5.637750
head 5.611650 -0.762215 2.684085
rclavicle -0.000000 0.000000
rhumerus -22.896749 4.188740 -41.503849
rradius 21.295700
rwrist -11.717250
rhand -14.847950 -10.996900
rfingers 3.562510
rthumb -1.511905 -25.976049
lclavicle -0.000000 0.000000
lhumerus -10.433650 -6.963150 43.527748
lradius 11.975600
lwrist 0.039358
lhand -6.519650 -12.244900
lfingers 3.562510
lthumb 6.527650 2.540805
rfemur -13.434900 -0.872025 8.928250
rtibia 31.699450
rfoot -9.292050 -5.914550
rtoes -9.032950
lfemur -8.449250 3.126410 -14.271550
ltibia 14.739750
lfoot -8.751950 3.319960
ltoes -1.505550
277
root 9.993740 16.858999 1.988560 5.632140 -3.325860 2.097630
lowerback -2.529320 -0.915085 -1.523580
upperback -0.172117 -1.162580 1.074640
thorax 1.346475 -0.604630 1.879250
lowerneck -11.054700 -1.834275 -5.578700
upperneck 10.974350 -2.145190 5.564000
head 5.641600 -0.756220 2.652405
rclavicle 0.000000 -0.000000
rhumerus -22.831200 4.192860 -41.535400
rradius 21.275450
rwrist -11.886200
rhand -14.742500 -11.384450
rfingers 3.562510
rthumb -1.410045 -26.365000
lclavicle 0.000000 -0.000000
lhumerus -9.921750 -7.055900 43.435101
lradius 12.028950
lwrist 0.053376
lhand -6.385700 -12.125600
lfingers 3.562510
lthumb 6.656800 2.651780
rfemur -13.853950 -0.921605 8.899950
rtibia 31.248899
rfoot -9.388500 -5.933450
rtoes -9.102850
lfemur -8.070700 3.014550 -14.319250
ltibia 14.672600
lfoot -8.993300 3.178855
ltoes -0.544105
278
root 9.999620 16.847000 2.108090 5.660150 -2.894280 1.934920
lowerback -2.510415 -1.002115 -1.451030
upperback -0.193126 -1.284395 1.118740
thorax 1.323880 -0.664140 1.875300
lowerneck -10.953750 -1.827355 -5.652850
upperneck 10.948900 -2.136245 5.628800
head 5.615000 -0.753265 2.689905
rclavicle -0.000000 -0.000000
rhumerus -22.980000 4.322440 -41.586700
rradius 21.380350
rwrist -12.094250
rhand -14.559050 -11.565400
rfingers 3.562510
rthumb -1.232880 -26.548149
lclavicle -0.000000 -0.000000
lhumerus -9.564050 -7.051500 43.369148
lradius 12.082900
lwrist -0.075631
lhand -6.638550 -12.200000
lfingers 3.562510
lthumb 6.413000 2.592995
rfemur -14.372400 -0.855585 9.045950
rtibia 30.735750
rfoot -9.968900 -5.933700
rtoes -9.241400
lfemur -7.786950 2.961575 -14.229450
ltibia 14.588350
lfoot -9.077400 3.082895
ltoes -0.236317
